<?xml version="1.0" encoding="UTF-8"?>
<svg id="Layer_1" data-name="Layer 1" xmlns="http://www.w3.org/2000/svg" xmlns:xlink="http://www.w3.org/1999/xlink" viewBox="0 0 2834.28 2556.71">
  <defs>
    <style>
      .cls-1 {
        fill: none;
      }

      .cls-2 {
        stroke-width: 15.2px;
      }

      .cls-2, .cls-3, .cls-4 {
        stroke-miterlimit: 10;
      }

      .cls-2, .cls-4 {
        fill: #c9bf9d;
        stroke: #c9bf9d;
      }

      .cls-5 {
        fill: #057c91;
      }

      .cls-6 {
        fill: #7cd1ea;
      }

      .cls-7 {
        fill: #fdbc16;
      }

      .cls-8 {
        clip-path: url(#clippath-1);
      }

      .cls-9 {
        fill: #dce1e5;
      }

      .cls-10 {
        fill: #fff;
      }

      .cls-3 {
        fill: #595a5a;
        stroke: #fff;
        stroke-width: 4.27px;
      }

      .cls-11 {
        fill: #010101;
        font-family: Lexend-Regular, Lexend;
        font-size: 30px;
        font-variation-settings: 'wght' 400;
      }

      .cls-4 {
        stroke-width: .76px;
      }

      .cls-12 {
        opacity: .35;
      }

      .cls-13 {
        opacity: .2;
      }

      .cls-14 {
        opacity: .25;
      }

      .cls-15 {
        fill: #1eb0c8;
      }

      .cls-16 {
        letter-spacing: -.1em;
      }

      .cls-17 {
        fill: #9cbebe;
      }

      .cls-18 {
        letter-spacing: -.02em;
      }

      .cls-19 {
        fill: #cee7eb;
      }

      .cls-20 {
        fill: #e6e7e8;
      }

      .cls-21 {
        fill: #15385f;
      }

      .cls-22 {
        clip-path: url(#clippath);
      }
    </style>
    <clipPath id="clippath">
      <path class="cls-1" d="M2092.74,1986.19l-78.04-30.72c-12.45-4.9-26.56-2.79-37.03,5.54l-65.63,52.23c-10.47,8.33-15.69,21.61-13.71,34.84l12.42,82.95c1.98,13.23,10.87,24.4,23.31,29.29l78.04,30.72c12.45,4.9,26.56,2.79,37.03-5.54l65.63-52.23c10.47-8.33,15.69-21.61,13.71-34.84l-12.42-82.95c-1.98-13.23-10.87-24.4-23.31-29.29Z"/>
    </clipPath>
    <clipPath id="clippath-1">
      <path class="cls-1" d="M1144.99,514.64l-120.56-47.46c-12.45-4.9-26.56-2.79-37.03,5.54l-101.38,80.68c-10.47,8.33-15.69,21.61-13.71,34.84l19.18,128.14c1.98,13.23,10.87,24.4,23.31,29.29l120.56,47.46c12.45,4.9,26.56,2.79,37.03-5.54l101.38-80.68c10.47-8.33,15.69-21.61,13.71-34.84l-19.18-128.14c-1.98-13.23-10.87-24.4-23.31-29.29Z"/>
    </clipPath>
  </defs>
  <path class="cls-9" d="M2026.34,0H807.94c-71.01,0-136.62,37.88-172.12,99.37L26.63,1154.53c-35.5,61.49-35.5,137.25,0,198.75l609.2,1055.16c35.5,61.49,101.11,99.37,172.12,99.37h1218.39c71.01,0,136.62-37.88,172.12-99.37l609.2-1055.16c35.5-61.49,35.5-137.25,0-198.75L2198.46,99.37c-35.5-61.49-101.11-99.37-172.12-99.37Z"/>
  <g class="cls-12">
    <circle class="cls-4" cx="732.65" cy="960.49" r="132.47"/>
    <circle class="cls-4" cx="1791.12" cy="1408.66" r="132.47"/>
    <circle class="cls-4" cx="1260.8" cy="1099.15" r="86.72"/>
    <circle class="cls-4" cx="943.85" cy="1615.98" r="62.5"/>
    <circle class="cls-4" cx="1573.48" cy="526.04" r="63.52"/>
    <circle class="cls-4" cx="2503.46" cy="1425.39" r="63.52"/>
    <circle class="cls-4" cx="1307.36" cy="1915.48" r="119.31"/>
    <circle class="cls-4" cx="2123.07" cy="774.17" r="119.31"/>
    <circle class="cls-4" cx="382.5" cy="1690.95" r="56.4"/>
    <line class="cls-2" x1="382.5" y1="1690.95" x2="732.65" y2="960.49"/>
    <line class="cls-2" x1="943.85" y1="1615.98" x2="382.5" y2="1690.95"/>
    <line class="cls-2" x1="1307.36" y1="1915.48" x2="943.85" y2="1615.98"/>
    <line class="cls-2" x1="732.65" y1="960.49" x2="1260.8" y2="1099.15"/>
    <line class="cls-2" x1="1573.48" y1="526.04" x2="1260.8" y2="1099.15"/>
    <line class="cls-2" x1="943.85" y1="1615.98" x2="732.65" y2="960.49"/>
    <line class="cls-2" x1="1307.36" y1="1915.48" x2="732.65" y2="960.49"/>
    <line class="cls-2" x1="1791.12" y1="1408.66" x2="1307.36" y2="1915.48"/>
    <line class="cls-2" x1="1260.8" y1="1099.15" x2="1791.12" y2="1408.66"/>
    <line class="cls-2" x1="943.85" y1="1615.98" x2="1791.12" y2="1408.66"/>
    <line class="cls-2" x1="1573.48" y1="526.04" x2="2123.07" y2="774.17"/>
    <line class="cls-2" x1="1260.8" y1="1099.15" x2="2123.07" y2="774.17"/>
    <line class="cls-2" x1="1791.12" y1="1408.66" x2="1573.48" y2="526.04"/>
    <line class="cls-2" x1="1791.12" y1="1408.66" x2="2503.46" y2="1425.39"/>
    <line class="cls-2" x1="2123.07" y1="774.17" x2="2503.46" y2="1425.39"/>
  </g>
  <g>
    <path class="cls-17" d="M589.16,1620.15h273.88c27.35,0,49.55,22.2,49.55,49.55v200.21h-372.98v-200.21c0-27.35,22.2-49.55,49.55-49.55Z"/>
    <path class="cls-17" d="M1927.33,1391.92h273.88c27.35,0,49.55,22.2,49.55,49.55v428.44h-372.98v-428.44c0-27.35,22.2-49.55,49.55-49.55Z"/>
    <path class="cls-17" d="M1016.33,1052.21h273.88c27.35,0,49.55,22.2,49.55,49.55v768.15h-372.98v-768.15c0-27.35,22.2-49.55,49.55-49.55Z"/>
    <path class="cls-17" d="M1472.91,627.41h273.88c27.35,0,49.55,22.2,49.55,49.55v1192.95h-372.98V676.96c0-27.35,22.2-49.55,49.55-49.55Z"/>
  </g>
  <g>
    <path class="cls-7" d="M1130.73,1018.71l-38.29,291.98c-6.43,48.49,26.35,93.65,74.45,102.41,51.09,9.51,99.81-25.36,107.49-76.66l44.53-293.99c3.21-20.65,22.3-34.88,43.13-31.83,20.82,3.04,34.88,22.3,31.83,43.13l-9.45,61.79,446.65-6.89-307.37-323.62-1.2,1.14-10.76,2.06-200.15,38.49c-42.18,8.11-81.33,28.34-112.53,57.97-37.37,35.49-61.5,82.86-68.33,134.02Z"/>
    <path class="cls-21" d="M1372.34,1194.82l-23.17,153.08c-13.94,93.45-102.7,156.88-195.9,139.77-87.71-16.14-147.46-98.28-135.83-186.6l33.05-250.81c-27.86,10.49-53.36,26.55-75.13,47.23-32.39,30.44-54.64,69.83-64.62,113.21l-45.27,199.5,364.68,383.96,48.34-45.91,292.45-5.85c62.74-1.23,112.4-52.96,111.17-115.7-.5-19.41-5.72-37.6-14.51-53.38l54.54-.94c62.57-1.06,112.56-52.79,111.49-115.35-.26-15.73-3.89-30.87-9.89-44.4,54.42-9.3,95.27-56.91,94.24-113.96-1.06-62.57-52.79-112.56-115.35-111.49l-430.28,7.65h0Z"/>
    <path class="cls-21" d="M673.49,1592.53c-15.08,14.33-15.7,38.39-1.38,53.47l338.63,356.53c28.82,30.34,76.61,31.57,106.95,2.75l54.85-52.1c30.34-28.82,31.57-76.61,2.75-106.95l-364.68-383.96-137.13,130.24Z"/>
    <circle class="cls-7" cx="1066.98" cy="1896.97" r="37.82"/>
    <path class="cls-7" d="M1578.54,732.93l364.68,383.96c28.82,30.34,76.61,31.57,106.95,2.75l54.85-52.1c30.34-28.82,31.57-76.61,2.75-106.95l-338.63-356.53c-14.33-15.08-38.39-15.7-53.47-1.38l-137.13,130.24Z"/>
    <circle class="cls-21" cx="1999.45" cy="1011.31" r="37.82"/>
  </g>
  <polygon class="cls-3" points="882.58 2553 939.4 2553 939.4 2553 882.58 2553"/>
  <rect class="cls-3" x="939.4" y="2549.11" width="56.82" height="3.89"/>
  <g class="cls-13">
    <g class="cls-22">
      <path class="cls-19" d="M2094.63,1986.94l-81.83-32.21c-11.27-4.44-24.06-2.52-33.54,5.02l-68.81,54.76c-9.48,7.54-14.22,19.57-12.42,31.56l13.02,86.97c1.79,11.98,9.84,22.1,21.12,26.54l81.83,32.21c11.27,4.44,24.06,2.52,33.54-5.02l68.81-54.76c9.48-7.54,14.22-19.57,12.42-31.56l-13.02-86.97c-1.79-11.98-9.84-22.1-21.12-26.54Z"/>
      <g>
        <path class="cls-15" d="M2043.16,2081.39c-14.33-5.64-27.92-22.72-30.2-37.95l-9.4-62.78c-2.28-15.23,7.58-23.08,21.91-17.44l59.06,23.25c14.33,5.64,27.92,22.72,30.2,37.95l9.4,62.78c2.28,15.23-7.58,23.08-21.91,17.44l-59.06-23.25Z"/>
        <path class="cls-5" d="M1940.42,2128.27c-12.05,9.59-23.77,4.97-26.05-10.26l-9.4-62.78c-2.28-15.23,5.71-35.54,17.76-45.13l49.67-39.53c12.05-9.59,23.77-4.97,26.05,10.26l9.4,62.78c2.28,15.23-5.71,35.54-17.76,45.13l-49.67,39.53Z"/>
        <path class="cls-6" d="M2055.32,2177.68c-12.05,9.59-33.63,12.82-47.96,7.18l-59.07-23.25c-14.33-5.64-16.2-18.1-4.15-27.69l49.67-39.53c12.05-9.59,33.63-12.82,47.96-7.18l59.07,23.25c14.33,5.64,16.2,18.1,4.15,27.69l-49.67,39.53Z"/>
      </g>
      <polygon class="cls-20" points="2013.46 2073.29 2013.35 2073.25 2013.35 2073.22 2013.45 2073.26 2013.46 2073.29"/>
      <polygon class="cls-20" points="2013.46 2073.29 2013.35 2073.25 2013.35 2073.22 2013.45 2073.26 2013.46 2073.29"/>
      <polygon class="cls-20" points="2013.49 2073.26 2013.38 2073.34 2013.36 2073.21 2013.49 2073.26"/>
      <polygon class="cls-20" points="2013.44 2073.06 2013.48 2073.36 2013.2 2073.25 2013.44 2073.06"/>
      <polygon class="cls-20" points="2013.35 2073.25 2013.35 2073.22 2013.45 2073.26 2013.46 2073.29 2013.35 2073.25"/>
    </g>
    <path class="cls-10" d="M2066.37,2041.35c-4.49-1.77-8.72-7.08-9.43-11.85-.72-4.78,2.35-7.22,6.84-5.45,4.49,1.77,8.72,7.08,9.43,11.85.72,4.78-2.35,7.22-6.84,5.45Z"/>
    <path class="cls-10" d="M2089.12,2023.24c-4.49-1.77-8.72-7.08-9.43-11.85s2.35-7.22,6.84-5.45,8.72,7.08,9.43,11.85c.72,4.78-2.35,7.22-6.84,5.45Z"/>
    <path class="cls-10" d="M2041.75,2060.94c-4.49-1.77-8.72-7.08-9.43-11.85-.72-4.78,2.35-7.22,6.84-5.45,4.49,1.77,8.72,7.08,9.43,11.85.72,4.78-2.35,7.22-6.84,5.45Z"/>
    <path class="cls-10" d="M2036.99,2004.44c-4.49-1.77-8.72-7.08-9.43-11.85-.72-4.78,2.35-7.22,6.84-5.45,4.49,1.77,8.72,7.08,9.43,11.85.72,4.78-2.35,7.22-6.84,5.45Z"/>
    <path class="cls-10" d="M2096.81,2079.6c-4.49-1.77-8.72-7.08-9.43-11.85-.72-4.78,2.35-7.22,6.84-5.45,4.49,1.77,8.72,7.08,9.43,11.85.72,4.78-2.35,7.22-6.84,5.45Z"/>
    <path class="cls-10" d="M2020.04,2118.08c-3.78,3.01-10.49,4.01-14.98,2.24-4.49-1.77-5.07-5.64-1.29-8.65,3.78-3.01,10.49-4.01,14.98-2.24,4.49,1.77,5.07,5.64,1.29,8.65Z"/>
    <path class="cls-10" d="M2050.52,2129.21c-3.78,3.01-10.49,4.01-14.98,2.24-4.49-1.77-5.07-5.64-1.29-8.65,3.78-3.01,10.49-4.01,14.98-2.24,4.49,1.77,5.07,5.64,1.29,8.65Z"/>
    <path class="cls-10" d="M2079.07,2139.02c-3.78,3.01-10.49,4.01-14.98,2.24-4.49-1.77-5.07-5.64-1.29-8.65,3.78-3.01,10.49-4.01,14.98-2.24,4.49,1.77,5.07,5.64,1.29,8.65Z"/>
    <path class="cls-10" d="M1989.95,2142.03c-3.78,3.01-10.49,4.01-14.98,2.24-4.49-1.77-5.07-5.64-1.29-8.65,3.78-3.01,10.49-4.01,14.98-2.24,4.49,1.77,5.07,5.64,1.29,8.65Z"/>
    <path class="cls-10" d="M2020.43,2153.16c-3.78,3.01-10.49,4.01-14.98,2.24-4.49-1.77-5.07-5.64-1.29-8.65,3.78-3.01,10.49-4.01,14.98-2.24,4.49,1.77,5.07,5.64,1.29,8.65Z"/>
    <path class="cls-10" d="M2048.98,2162.97c-3.78,3.01-10.49,4.01-14.98,2.24-4.49-1.77-5.07-5.64-1.29-8.65,3.78-3.01,10.49-4.01,14.98-2.24,4.49,1.77,5.07,5.64,1.29,8.65Z"/>
    <path class="cls-10" d="M1974.13,2013.39c-3.78,3.01-7.42,1.57-8.14-3.2-.72-4.78,1.77-11.09,5.55-14.1,3.78-3.01,7.42-1.57,8.14,3.2.72,4.78-1.77,11.09-5.55,14.1Z"/>
    <path class="cls-10" d="M1956.19,2057.84c-3.78,3.01-7.42,1.57-8.14-3.2-.72-4.78,1.77-11.09,5.55-14.1,3.78-3.01,7.42-1.57,8.14,3.2.72,4.78-1.77,11.09-5.55,14.1Z"/>
    <path class="cls-10" d="M1936.73,2102.19c-3.78,3.01-7.42,1.57-8.14-3.2-.72-4.78,1.77-11.09,5.55-14.1,3.78-3.01,7.42-1.57,8.14,3.2.72,4.78-1.77,11.09-5.55,14.1Z"/>
  </g>
  <g class="cls-14">
    <g class="cls-8">
      <path class="cls-19" d="M1146.89,515.39l-124.35-48.95c-11.27-4.44-24.06-2.52-33.54,5.02l-104.56,83.21c-9.48,7.54-14.22,19.57-12.42,31.56l19.78,132.16c1.79,11.98,9.84,22.1,21.12,26.54l124.35,48.95c11.27,4.44,24.06,2.52,33.54-5.02l104.56-83.21c9.48-7.54,14.22-19.57,12.42-31.56l-19.78-132.16c-1.79-11.98-9.84-22.1-21.12-26.54Z"/>
      <g>
        <path class="cls-15" d="M1070.36,641.22c-19.48-7.67-37.96-30.88-41.06-51.59l-12.78-85.35c-3.1-20.71,10.3-31.37,29.78-23.7l80.3,31.61c19.48,7.67,37.96,30.88,41.06,51.59l12.78,85.35c3.1,20.71-10.3,31.37-29.78,23.7l-80.3-31.61Z"/>
        <path class="cls-5" d="M930.68,704.95c-16.38,13.04-32.32,6.76-35.42-13.94l-12.78-85.35c-3.1-20.71,7.77-48.31,24.15-61.35l67.52-53.74c16.38-13.04,32.32-6.76,35.42,13.94l12.78,85.35c3.1,20.71-7.77,48.31-24.15,61.35l-67.52,53.74Z"/>
        <path class="cls-6" d="M1086.89,772.12c-16.38,13.04-45.72,17.43-65.21,9.76l-80.3-31.61c-19.48-7.67-22.02-24.61-5.64-37.65l67.52-53.74c16.38-13.04,45.72-17.43,65.21-9.76l80.3,31.61c19.48,7.67,22.02,24.61,5.64,37.65l-67.52,53.74Z"/>
      </g>
      <polygon class="cls-20" points="1029.98 630.2 1029.84 630.15 1029.83 630.11 1029.97 630.17 1029.98 630.2"/>
      <polygon class="cls-20" points="1029.98 630.2 1029.84 630.15 1029.83 630.11 1029.97 630.17 1029.98 630.2"/>
      <polygon class="cls-20" points="1030.02 630.16 1029.88 630.28 1029.85 630.1 1030.02 630.16"/>
      <polygon class="cls-20" points="1029.96 629.89 1030.01 630.3 1029.63 630.15 1029.96 629.89"/>
      <polygon class="cls-20" points="1029.84 630.15 1029.83 630.11 1029.97 630.17 1029.98 630.2 1029.84 630.15"/>
    </g>
    <path class="cls-10" d="M1101.91,586.78c-6.11-2.41-11.85-9.62-12.82-16.11-.97-6.49,3.19-9.81,9.3-7.4,6.11,2.41,11.85,9.62,12.82,16.11.97,6.49-3.19,9.81-9.3,7.4Z"/>
    <path class="cls-10" d="M1132.84,562.17c-6.11-2.41-11.85-9.62-12.82-16.11-.97-6.49,3.19-9.81,9.3-7.4,6.11,2.41,11.85,9.62,12.82,16.11.97,6.49-3.19,9.81-9.3,7.4Z"/>
    <path class="cls-10" d="M1068.44,613.42c-6.11-2.41-11.85-9.62-12.82-16.11-.97-6.49,3.19-9.81,9.3-7.4,6.11,2.41,11.85,9.62,12.82,16.11.97,6.49-3.19,9.81-9.3,7.4Z"/>
    <path class="cls-10" d="M1061.98,536.61c-6.11-2.41-11.85-9.62-12.82-16.11-.97-6.49,3.19-9.81,9.3-7.4,6.11,2.41,11.85,9.62,12.82,16.11.97,6.49-3.19,9.81-9.3,7.4Z"/>
    <path class="cls-10" d="M1143.29,638.78c-6.11-2.41-11.85-9.62-12.82-16.11-.97-6.49,3.19-9.81,9.3-7.4,6.11,2.41,11.85,9.62,12.82,16.11.97,6.49-3.19,9.81-9.3,7.4Z"/>
    <path class="cls-10" d="M1038.93,691.09c-5.14,4.09-14.26,5.45-20.37,3.05-6.11-2.41-6.9-7.67-1.76-11.76,5.14-4.09,14.26-5.45,20.37-3.05,6.11,2.41,6.9,7.67,1.76,11.76Z"/>
    <path class="cls-10" d="M1080.37,706.22c-5.14,4.09-14.26,5.45-20.37,3.05-6.11-2.41-6.9-7.67-1.76-11.76,5.14-4.09,14.26-5.45,20.37-3.05,6.11,2.41,6.9,7.67,1.76,11.76Z"/>
    <path class="cls-10" d="M1119.18,719.56c-5.14,4.09-14.26,5.45-20.37,3.05-6.11-2.41-6.9-7.67-1.76-11.76,5.14-4.09,14.26-5.45,20.37-3.05,6.11,2.41,6.9,7.67,1.76,11.76Z"/>
    <path class="cls-10" d="M998.02,723.65c-5.14,4.09-14.26,5.45-20.37,3.05-6.11-2.41-6.9-7.67-1.76-11.76,5.14-4.09,14.26-5.45,20.37-3.05,6.11,2.41,6.9,7.67,1.76,11.76Z"/>
    <path class="cls-10" d="M1039.46,738.78c-5.14,4.09-14.26,5.45-20.37,3.05-6.11-2.41-6.9-7.67-1.76-11.76,5.14-4.09,14.26-5.45,20.37-3.05,6.11,2.41,6.9,7.67,1.76,11.76Z"/>
    <path class="cls-10" d="M1078.27,752.12c-5.14,4.09-14.26,5.45-20.37,3.05-6.11-2.41-6.9-7.67-1.76-11.76,5.14-4.09,14.26-5.45,20.37-3.05,6.11,2.41,6.9,7.67,1.76,11.76Z"/>
    <path class="cls-10" d="M976.52,548.78c-5.14,4.09-10.09,2.14-11.06-4.35-.97-6.49,2.4-15.07,7.54-19.16,5.14-4.09,10.09-2.14,11.06,4.35.97,6.49-2.4,15.07-7.54,19.16Z"/>
    <path class="cls-10" d="M952.12,609.21c-5.14,4.09-10.09,2.14-11.06-4.35-.97-6.49,2.4-15.07,7.54-19.16,5.14-4.09,10.09-2.14,11.06,4.35.97,6.49-2.4,15.07-7.54,19.16Z"/>
    <path class="cls-10" d="M925.68,669.5c-5.14,4.09-10.09,2.14-11.06-4.35-.97-6.49,2.4-15.07,7.54-19.16,5.14-4.09,10.09-2.14,11.06,4.35.97,6.49-2.4,15.07-7.54,19.16Z"/>
  </g>
  <text class="cls-11" transform="translate(1197.7 2452.39)"><tspan class="cls-18" x="0" y="0">L</tspan><tspan x="17.37" y="0">ogo designed </tspan><tspan class="cls-18" x="223.77" y="0">b</tspan><tspan x="242.07" y="0">y Ethan </tspan><tspan class="cls-16" x="360.93" y="0">P</tspan><tspan x="376.94" y="0">. Marzban; </tspan></text>
</svg>